<mxfile host="Electron" agent="Mozilla/5.0 (Windows NT 10.0; Win64; x64) AppleWebKit/537.36 (KHTML, like Gecko) draw.io/24.7.17 Chrome/128.0.6613.36 Electron/32.0.1 Safari/537.36" version="24.7.17">
  <diagram name="Page-1" id="cWu2gIO69TJou_vbiqat">
    <mxGraphModel dx="3183" dy="2587" grid="1" gridSize="10" guides="1" tooltips="1" connect="1" arrows="1" fold="1" page="1" pageScale="1" pageWidth="850" pageHeight="1100" math="0" shadow="0">
      <root>
        <mxCell id="0" />
        <mxCell id="1" parent="0" />
        <mxCell id="LQ7CNTnotzsJqnzsIfhJ-29" value="" style="rounded=1;whiteSpace=wrap;html=1;fillColor=none;shadow=1;glass=1;sketch=1;curveFitting=1;jiggle=2;" parent="1" vertex="1">
          <mxGeometry x="-720" y="-480" width="2290" height="1030" as="geometry" />
        </mxCell>
        <mxCell id="LQ7CNTnotzsJqnzsIfhJ-11" value="" style="rounded=1;whiteSpace=wrap;html=1;fillColor=none;dashed=1;sketch=1;curveFitting=1;jiggle=2;" parent="1" vertex="1">
          <mxGeometry x="210" y="133.67999999999995" width="310" height="180" as="geometry" />
        </mxCell>
        <mxCell id="kMwo3B65pXitG9x-3QU5-8" value="" style="shape=image;verticalLabelPosition=bottom;labelBackgroundColor=default;verticalAlign=top;aspect=fixed;imageAspect=0;image=https://miro.medium.com/v2/resize:fit:640/1*IwREy4zpiSstXRZuGZPl3Q.png;" parent="1" vertex="1">
          <mxGeometry x="249.03000000000003" y="173.67999999999995" width="211.93" height="100" as="geometry" />
        </mxCell>
        <mxCell id="kMwo3B65pXitG9x-3QU5-24" value="" style="group" parent="1" vertex="1" connectable="0">
          <mxGeometry x="-660" y="-395" width="290" height="750" as="geometry" />
        </mxCell>
        <mxCell id="kMwo3B65pXitG9x-3QU5-22" value="" style="rounded=1;whiteSpace=wrap;html=1;fillColor=none;sketch=1;curveFitting=1;jiggle=2;dashed=1;" parent="kMwo3B65pXitG9x-3QU5-24" vertex="1">
          <mxGeometry y="70" width="290" height="680" as="geometry" />
        </mxCell>
        <mxCell id="kMwo3B65pXitG9x-3QU5-23" value="&lt;font style=&quot;font-size: 24px;&quot;&gt;&lt;b&gt;Data Sourses&lt;/b&gt;&lt;/font&gt;" style="rounded=1;whiteSpace=wrap;html=1;fillColor=#fff2cc;sketch=1;curveFitting=1;jiggle=2;dashed=1;strokeColor=#d6b656;" parent="kMwo3B65pXitG9x-3QU5-24" vertex="1">
          <mxGeometry width="290" height="60" as="geometry" />
        </mxCell>
        <mxCell id="kMwo3B65pXitG9x-3QU5-25" value="" style="shape=image;verticalLabelPosition=bottom;labelBackgroundColor=default;verticalAlign=top;aspect=fixed;imageAspect=0;image=https://static.thenounproject.com/png/1542560-200.png;" parent="kMwo3B65pXitG9x-3QU5-24" vertex="1">
          <mxGeometry x="100" y="100" width="90" height="90" as="geometry" />
        </mxCell>
        <mxCell id="kMwo3B65pXitG9x-3QU5-26" value="" style="shape=image;verticalLabelPosition=bottom;labelBackgroundColor=default;verticalAlign=top;aspect=fixed;imageAspect=0;image=https://cdn-icons-png.flaticon.com/512/11298/11298740.png;" parent="kMwo3B65pXitG9x-3QU5-24" vertex="1">
          <mxGeometry x="100" y="220" width="90" height="90" as="geometry" />
        </mxCell>
        <mxCell id="kMwo3B65pXitG9x-3QU5-27" value="" style="shape=image;verticalLabelPosition=bottom;labelBackgroundColor=default;verticalAlign=top;aspect=fixed;imageAspect=0;image=https://cdn-icons-png.flaticon.com/512/11298/11298736.png;" parent="kMwo3B65pXitG9x-3QU5-24" vertex="1">
          <mxGeometry x="105" y="374" width="70" height="70" as="geometry" />
        </mxCell>
        <mxCell id="kMwo3B65pXitG9x-3QU5-28" value="" style="shape=image;verticalLabelPosition=bottom;labelBackgroundColor=default;verticalAlign=top;aspect=fixed;imageAspect=0;image=https://cdn-icons-png.flaticon.com/512/11331/11331784.png;" parent="kMwo3B65pXitG9x-3QU5-24" vertex="1">
          <mxGeometry x="105" y="630" width="80" height="80" as="geometry" />
        </mxCell>
        <mxCell id="uK0IQn9bH_vHSzn9rZWx-1" style="edgeStyle=orthogonalEdgeStyle;rounded=0;orthogonalLoop=1;jettySize=auto;html=1;exitX=0.75;exitY=0;exitDx=0;exitDy=0;entryX=0.818;entryY=0.091;entryDx=0;entryDy=0;entryPerimeter=0;" parent="kMwo3B65pXitG9x-3QU5-24" source="kMwo3B65pXitG9x-3QU5-28" target="kMwo3B65pXitG9x-3QU5-28" edge="1">
          <mxGeometry relative="1" as="geometry" />
        </mxCell>
        <mxCell id="kMwo3B65pXitG9x-3QU5-29" value="" style="shape=image;verticalLabelPosition=bottom;labelBackgroundColor=default;verticalAlign=top;aspect=fixed;imageAspect=0;image=https://cdn-icons-png.flaticon.com/256/11298/11298820.png;" parent="kMwo3B65pXitG9x-3QU5-24" vertex="1">
          <mxGeometry x="100" y="490" width="96" height="96" as="geometry" />
        </mxCell>
        <mxCell id="uK0IQn9bH_vHSzn9rZWx-21" value="" style="group;dashed=1;" parent="1" vertex="1" connectable="0">
          <mxGeometry x="-270" y="-401" width="350" height="781" as="geometry" />
        </mxCell>
        <mxCell id="uK0IQn9bH_vHSzn9rZWx-11" value="&lt;font style=&quot;font-size: 24px;&quot;&gt;&lt;b&gt;Data Sourses&lt;/b&gt;&lt;/font&gt;" style="rounded=1;whiteSpace=wrap;html=1;fillColor=#d5e8d4;sketch=1;curveFitting=1;jiggle=2;dashed=1;strokeColor=#82b366;" parent="uK0IQn9bH_vHSzn9rZWx-21" vertex="1">
          <mxGeometry width="350.00000000000006" height="60.480000000000004" as="geometry" />
        </mxCell>
        <mxCell id="uK0IQn9bH_vHSzn9rZWx-10" value="" style="rounded=1;whiteSpace=wrap;html=1;fillColor=none;sketch=1;curveFitting=1;jiggle=2;dashed=1;" parent="uK0IQn9bH_vHSzn9rZWx-21" vertex="1">
          <mxGeometry y="80.64" width="350.00000000000006" height="675.36" as="geometry" />
        </mxCell>
        <mxCell id="kMwo3B65pXitG9x-3QU5-6" value="&#xa;Kafka Topic&#xa;&#xa;" style="shape=image;verticalLabelPosition=bottom;labelBackgroundColor=default;verticalAlign=top;aspect=fixed;imageAspect=0;image=https://static-00.iconduck.com/assets.00/kafka-icon-2048x935-cvu4503l.png;fontStyle=1" parent="uK0IQn9bH_vHSzn9rZWx-21" vertex="1">
          <mxGeometry x="98.36000000000003" y="380" width="153.29" height="70" as="geometry" />
        </mxCell>
        <mxCell id="uK0IQn9bH_vHSzn9rZWx-2" value="Kafka Consumer 1&#xa;" style="shape=image;verticalLabelPosition=bottom;labelBackgroundColor=default;verticalAlign=top;aspect=fixed;imageAspect=0;image=https://static-00.iconduck.com/assets.00/kafka-icon-2048x935-cvu4503l.png;" parent="uK0IQn9bH_vHSzn9rZWx-21" vertex="1">
          <mxGeometry x="110.00000000000001" y="176.4" width="153.29" height="70" as="geometry" />
        </mxCell>
        <mxCell id="uK0IQn9bH_vHSzn9rZWx-3" value="Kafka Consumer 2" style="shape=image;verticalLabelPosition=bottom;labelBackgroundColor=default;verticalAlign=top;aspect=fixed;imageAspect=0;image=https://static-00.iconduck.com/assets.00/kafka-icon-2048x935-cvu4503l.png;" parent="uK0IQn9bH_vHSzn9rZWx-21" vertex="1">
          <mxGeometry x="110" y="589.68" width="153.29" height="70" as="geometry" />
        </mxCell>
        <mxCell id="uK0IQn9bH_vHSzn9rZWx-23" style="edgeStyle=orthogonalEdgeStyle;rounded=0;orthogonalLoop=1;jettySize=auto;html=1;entryX=0.419;entryY=1.071;entryDx=0;entryDy=0;entryPerimeter=0;flowAnimation=1;strokeWidth=3;" parent="uK0IQn9bH_vHSzn9rZWx-21" source="kMwo3B65pXitG9x-3QU5-6" target="uK0IQn9bH_vHSzn9rZWx-2" edge="1">
          <mxGeometry relative="1" as="geometry" />
        </mxCell>
        <mxCell id="uK0IQn9bH_vHSzn9rZWx-24" style="edgeStyle=orthogonalEdgeStyle;rounded=0;orthogonalLoop=1;jettySize=auto;html=1;entryX=0.419;entryY=0.047;entryDx=0;entryDy=0;entryPerimeter=0;flowAnimation=1;strokeWidth=3;" parent="uK0IQn9bH_vHSzn9rZWx-21" source="kMwo3B65pXitG9x-3QU5-6" target="uK0IQn9bH_vHSzn9rZWx-3" edge="1">
          <mxGeometry relative="1" as="geometry" />
        </mxCell>
        <mxCell id="sGOXUXF85DOlAIpLgpSt-5" value="" style="shape=image;verticalLabelPosition=bottom;labelBackgroundColor=default;verticalAlign=top;aspect=fixed;imageAspect=0;image=https://blog.medinvention.dev/content/images/2021/02/Apache-ZooKeeper.png;" parent="uK0IQn9bH_vHSzn9rZWx-21" vertex="1">
          <mxGeometry x="110" y="693.86" width="114.9" height="62.14" as="geometry" />
        </mxCell>
        <mxCell id="uK0IQn9bH_vHSzn9rZWx-43" value="" style="endArrow=classic;html=1;rounded=0;exitX=1;exitY=0.5;exitDx=0;exitDy=0;entryX=0;entryY=0.5;entryDx=0;entryDy=0;flowAnimation=1;" parent="1" source="kMwo3B65pXitG9x-3QU5-25" target="kMwo3B65pXitG9x-3QU5-6" edge="1">
          <mxGeometry width="50" height="50" relative="1" as="geometry">
            <mxPoint x="-90" y="-15" as="sourcePoint" />
            <mxPoint x="-40" y="-65" as="targetPoint" />
            <Array as="points">
              <mxPoint x="-310" y="-250" />
              <mxPoint x="-310" y="15" />
            </Array>
          </mxGeometry>
        </mxCell>
        <mxCell id="uK0IQn9bH_vHSzn9rZWx-44" value="" style="endArrow=none;html=1;rounded=0;exitX=1;exitY=0.5;exitDx=0;exitDy=0;entryX=0;entryY=0.5;entryDx=0;entryDy=0;flowAnimation=1;" parent="1" source="kMwo3B65pXitG9x-3QU5-28" target="kMwo3B65pXitG9x-3QU5-6" edge="1">
          <mxGeometry width="50" height="50" relative="1" as="geometry">
            <mxPoint x="-90" y="-15" as="sourcePoint" />
            <mxPoint x="-40" y="-65" as="targetPoint" />
            <Array as="points">
              <mxPoint x="-310" y="275" />
              <mxPoint x="-310" y="15" />
            </Array>
          </mxGeometry>
        </mxCell>
        <mxCell id="uK0IQn9bH_vHSzn9rZWx-46" value="" style="endArrow=none;html=1;rounded=0;exitX=1;exitY=0.5;exitDx=0;exitDy=0;entryX=0;entryY=0.5;entryDx=0;entryDy=0;flowAnimation=1;" parent="1" source="kMwo3B65pXitG9x-3QU5-26" target="kMwo3B65pXitG9x-3QU5-6" edge="1">
          <mxGeometry width="50" height="50" relative="1" as="geometry">
            <mxPoint x="290" y="145" as="sourcePoint" />
            <mxPoint x="340" y="95" as="targetPoint" />
            <Array as="points">
              <mxPoint x="-340" y="-130" />
              <mxPoint x="-340" y="14" />
            </Array>
          </mxGeometry>
        </mxCell>
        <mxCell id="uK0IQn9bH_vHSzn9rZWx-47" value="" style="endArrow=none;html=1;rounded=0;exitX=1;exitY=0.5;exitDx=0;exitDy=0;entryX=0;entryY=0.5;entryDx=0;entryDy=0;flowAnimation=1;" parent="1" source="kMwo3B65pXitG9x-3QU5-27" target="kMwo3B65pXitG9x-3QU5-6" edge="1">
          <mxGeometry width="50" height="50" relative="1" as="geometry">
            <mxPoint x="-90" y="-15" as="sourcePoint" />
            <mxPoint x="-40" y="-65" as="targetPoint" />
            <Array as="points">
              <mxPoint x="-360" y="14" />
            </Array>
          </mxGeometry>
        </mxCell>
        <mxCell id="uK0IQn9bH_vHSzn9rZWx-48" value="" style="endArrow=none;html=1;rounded=0;exitX=1;exitY=0.5;exitDx=0;exitDy=0;entryX=0;entryY=0.5;entryDx=0;entryDy=0;flowAnimation=1;" parent="1" source="kMwo3B65pXitG9x-3QU5-29" target="kMwo3B65pXitG9x-3QU5-6" edge="1">
          <mxGeometry width="50" height="50" relative="1" as="geometry">
            <mxPoint x="-90" y="-15" as="sourcePoint" />
            <mxPoint x="-40" y="-65" as="targetPoint" />
            <Array as="points">
              <mxPoint x="-340" y="143" />
              <mxPoint x="-340" y="14" />
            </Array>
          </mxGeometry>
        </mxCell>
        <mxCell id="uK0IQn9bH_vHSzn9rZWx-58" value="" style="group;sketch=1;curveFitting=1;jiggle=2;strokeWidth=18;perimeterSpacing=3;" parent="1" vertex="1" connectable="0">
          <mxGeometry x="210" y="-289.6" width="290" height="200" as="geometry" />
        </mxCell>
        <mxCell id="uK0IQn9bH_vHSzn9rZWx-66" style="edgeStyle=orthogonalEdgeStyle;rounded=0;orthogonalLoop=1;jettySize=auto;html=1;flowAnimation=1;strokeWidth=3;" parent="uK0IQn9bH_vHSzn9rZWx-58" source="uK0IQn9bH_vHSzn9rZWx-55" edge="1">
          <mxGeometry relative="1" as="geometry">
            <mxPoint x="380" y="100.00000000000011" as="targetPoint" />
          </mxGeometry>
        </mxCell>
        <mxCell id="uK0IQn9bH_vHSzn9rZWx-55" value="" style="rounded=1;whiteSpace=wrap;html=1;fillColor=none;dashed=1;sketch=1;curveFitting=1;jiggle=2;" parent="uK0IQn9bH_vHSzn9rZWx-58" vertex="1">
          <mxGeometry width="290" height="200" as="geometry" />
        </mxCell>
        <mxCell id="uK0IQn9bH_vHSzn9rZWx-51" value="" style="shape=image;verticalLabelPosition=bottom;labelBackgroundColor=default;verticalAlign=top;aspect=fixed;imageAspect=0;image=https://cdn.freebiesupply.com/logos/large/2x/amazon-database-logo-png-transparent.png;direction=east;" parent="uK0IQn9bH_vHSzn9rZWx-58" vertex="1">
          <mxGeometry x="20" y="136.14" width="50" height="50" as="geometry" />
        </mxCell>
        <mxCell id="uK0IQn9bH_vHSzn9rZWx-52" value="" style="shape=image;verticalLabelPosition=bottom;labelBackgroundColor=default;verticalAlign=top;aspect=fixed;imageAspect=0;image=https://cdn.freebiesupply.com/logos/large/2x/amazon-database-logo-png-transparent.png;" parent="uK0IQn9bH_vHSzn9rZWx-58" vertex="1">
          <mxGeometry x="118.34" y="13.120000000000001" width="53.33" height="53.33" as="geometry" />
        </mxCell>
        <mxCell id="uK0IQn9bH_vHSzn9rZWx-54" value="" style="shape=image;verticalLabelPosition=bottom;labelBackgroundColor=default;verticalAlign=top;aspect=fixed;imageAspect=0;image=https://cdn.freebiesupply.com/logos/large/2x/amazon-database-logo-png-transparent.png;" parent="uK0IQn9bH_vHSzn9rZWx-58" vertex="1">
          <mxGeometry x="220" y="136.67000000000002" width="49.47" height="49.47" as="geometry" />
        </mxCell>
        <mxCell id="kMwo3B65pXitG9x-3QU5-3" value="" style="shape=image;verticalLabelPosition=bottom;labelBackgroundColor=default;verticalAlign=top;aspect=fixed;imageAspect=0;image=https://www.qalamcode.com/wp-content/uploads/2024/11/PostgreSQL.png;" parent="uK0IQn9bH_vHSzn9rZWx-58" vertex="1">
          <mxGeometry x="95.09" y="73.12" width="99.82" height="100" as="geometry" />
        </mxCell>
        <mxCell id="uK0IQn9bH_vHSzn9rZWx-59" style="edgeStyle=orthogonalEdgeStyle;rounded=0;orthogonalLoop=1;jettySize=auto;html=1;entryX=0;entryY=0.5;entryDx=0;entryDy=0;flowAnimation=1;strokeWidth=4;" parent="1" source="uK0IQn9bH_vHSzn9rZWx-2" target="uK0IQn9bH_vHSzn9rZWx-55" edge="1">
          <mxGeometry relative="1" as="geometry" />
        </mxCell>
        <mxCell id="uK0IQn9bH_vHSzn9rZWx-60" value="&lt;font size=&quot;1&quot; style=&quot;&quot;&gt;&lt;b style=&quot;font-size: 20px;&quot;&gt;ODS&lt;/b&gt;&lt;/font&gt;" style="rounded=1;whiteSpace=wrap;html=1;fillColor=#dae8fc;dashed=1;sketch=1;curveFitting=1;jiggle=2;strokeColor=#6c8ebf;" parent="1" vertex="1">
          <mxGeometry x="210" y="-365" width="290" height="60" as="geometry" />
        </mxCell>
        <mxCell id="uK0IQn9bH_vHSzn9rZWx-61" value="&lt;font size=&quot;1&quot; style=&quot;&quot;&gt;&lt;b style=&quot;font-size: 20px;&quot;&gt;EDWH&lt;/b&gt;&lt;/font&gt;" style="rounded=1;whiteSpace=wrap;html=1;fillColor=#dae8fc;dashed=1;sketch=1;curveFitting=1;jiggle=2;strokeColor=#6c8ebf;" parent="1" vertex="1">
          <mxGeometry x="590" y="-355" width="330" height="60" as="geometry" />
        </mxCell>
        <mxCell id="uK0IQn9bH_vHSzn9rZWx-63" value="" style="group;sketch=1;curveFitting=1;jiggle=2;" parent="1" vertex="1" connectable="0">
          <mxGeometry x="590" y="-283.03999999999996" width="330" height="186.88" as="geometry" />
        </mxCell>
        <mxCell id="uK0IQn9bH_vHSzn9rZWx-62" value="" style="rounded=1;whiteSpace=wrap;html=1;fillColor=none;dashed=1;" parent="uK0IQn9bH_vHSzn9rZWx-63" vertex="1">
          <mxGeometry width="330" height="186.88" as="geometry" />
        </mxCell>
        <mxCell id="kMwo3B65pXitG9x-3QU5-9" value="" style="shape=image;verticalLabelPosition=bottom;labelBackgroundColor=default;verticalAlign=top;aspect=fixed;imageAspect=0;image=https://upload.wikimedia.org/wikipedia/commons/thumb/f/ff/Snowflake_Logo.svg/2560px-Snowflake_Logo.svg.png;" parent="uK0IQn9bH_vHSzn9rZWx-63" vertex="1">
          <mxGeometry x="26.359999999999967" y="60.28470588235294" width="277.28526315789475" height="66.3157894736842" as="geometry" />
        </mxCell>
        <mxCell id="LQ7CNTnotzsJqnzsIfhJ-1" value="" style="group;dashed=1;" parent="1" vertex="1" connectable="0">
          <mxGeometry x="1090" y="-398" width="395" height="756" as="geometry" />
        </mxCell>
        <mxCell id="LQ7CNTnotzsJqnzsIfhJ-2" value="&lt;font style=&quot;font-size: 24px;&quot;&gt;&lt;b&gt;Reporting Layer&lt;/b&gt;&lt;/font&gt;" style="rounded=1;whiteSpace=wrap;html=1;fillColor=#f5f5f5;sketch=1;curveFitting=1;jiggle=2;dashed=1;fontColor=#333333;strokeColor=#666666;" parent="LQ7CNTnotzsJqnzsIfhJ-1" vertex="1">
          <mxGeometry width="350.00000000000006" height="60.480000000000004" as="geometry" />
        </mxCell>
        <mxCell id="LQ7CNTnotzsJqnzsIfhJ-3" value="" style="rounded=1;whiteSpace=wrap;html=1;fillColor=none;sketch=1;curveFitting=1;jiggle=2;dashed=1;" parent="LQ7CNTnotzsJqnzsIfhJ-1" vertex="1">
          <mxGeometry y="80.64" width="350.00000000000006" height="675.36" as="geometry" />
        </mxCell>
        <mxCell id="LQ7CNTnotzsJqnzsIfhJ-22" value="" style="shape=image;verticalLabelPosition=bottom;labelBackgroundColor=default;verticalAlign=top;aspect=fixed;imageAspect=0;image=https://seaborn.pydata.org/_images/logo-wide-lightbg.svg;" parent="LQ7CNTnotzsJqnzsIfhJ-1" vertex="1">
          <mxGeometry x="26.81" y="145" width="296.38" height="85" as="geometry" />
        </mxCell>
        <mxCell id="LQ7CNTnotzsJqnzsIfhJ-23" value="" style="shape=image;verticalLabelPosition=bottom;labelBackgroundColor=default;verticalAlign=top;aspect=fixed;imageAspect=0;image=https://logos-world.net/wp-content/uploads/2022/02/Microsoft-Power-BI-Symbol.png;" parent="LQ7CNTnotzsJqnzsIfhJ-1" vertex="1">
          <mxGeometry x="40" y="314.87" width="224.44" height="126.25" as="geometry" />
        </mxCell>
        <mxCell id="LQ7CNTnotzsJqnzsIfhJ-25" value="" style="shape=image;verticalLabelPosition=bottom;labelBackgroundColor=default;verticalAlign=top;aspect=fixed;imageAspect=0;image=https://static.vecteezy.com/system/resources/thumbnails/018/886/508/small/email-line-icon-png.png;" parent="LQ7CNTnotzsJqnzsIfhJ-1" vertex="1">
          <mxGeometry x="79.34" y="526.02" width="191.32" height="191.32" as="geometry" />
        </mxCell>
        <mxCell id="LQ7CNTnotzsJqnzsIfhJ-12" value="" style="endArrow=classic;html=1;rounded=0;exitX=1;exitY=0.5;exitDx=0;exitDy=0;entryX=0;entryY=0.5;entryDx=0;entryDy=0;strokeWidth=4;flowAnimation=1;" parent="1" source="uK0IQn9bH_vHSzn9rZWx-3" target="LQ7CNTnotzsJqnzsIfhJ-11" edge="1">
          <mxGeometry width="50" height="50" relative="1" as="geometry">
            <mxPoint x="470" y="15" as="sourcePoint" />
            <mxPoint x="520" y="-35" as="targetPoint" />
          </mxGeometry>
        </mxCell>
        <mxCell id="LQ7CNTnotzsJqnzsIfhJ-13" value="&lt;font size=&quot;1&quot; style=&quot;&quot;&gt;&lt;b style=&quot;font-size: 20px;&quot;&gt;DL&lt;/b&gt;&lt;/font&gt;" style="rounded=1;whiteSpace=wrap;html=1;fillColor=#dae8fc;dashed=1;sketch=1;curveFitting=1;jiggle=2;strokeColor=#6c8ebf;" parent="1" vertex="1">
          <mxGeometry x="220" y="330" width="290" height="60" as="geometry" />
        </mxCell>
        <mxCell id="LQ7CNTnotzsJqnzsIfhJ-19" value="" style="group" parent="1" vertex="1" connectable="0">
          <mxGeometry x="630" y="136.83999999999995" width="320" height="173.68" as="geometry" />
        </mxCell>
        <mxCell id="LQ7CNTnotzsJqnzsIfhJ-14" value="" style="rounded=1;whiteSpace=wrap;html=1;fillColor=none;dashed=1;sketch=1;curveFitting=1;jiggle=2;" parent="LQ7CNTnotzsJqnzsIfhJ-19" vertex="1">
          <mxGeometry width="320" height="173.68" as="geometry" />
        </mxCell>
        <mxCell id="kMwo3B65pXitG9x-3QU5-4" value="" style="shape=image;verticalLabelPosition=bottom;labelBackgroundColor=default;verticalAlign=top;aspect=fixed;imageAspect=0;image=https://upload.wikimedia.org/wikipedia/commons/thumb/f/f3/Apache_Spark_logo.svg/512px-Apache_Spark_logo.svg.png;" parent="LQ7CNTnotzsJqnzsIfhJ-19" vertex="1">
          <mxGeometry x="92.90322580645162" y="50.790544999999966" width="146.5806451612903" height="76.14967741935483" as="geometry" />
        </mxCell>
        <mxCell id="LQ7CNTnotzsJqnzsIfhJ-15" style="edgeStyle=orthogonalEdgeStyle;rounded=0;orthogonalLoop=1;jettySize=auto;html=1;exitX=0.5;exitY=1;exitDx=0;exitDy=0;" parent="LQ7CNTnotzsJqnzsIfhJ-19" source="kMwo3B65pXitG9x-3QU5-4" target="kMwo3B65pXitG9x-3QU5-4" edge="1">
          <mxGeometry relative="1" as="geometry" />
        </mxCell>
        <mxCell id="LQ7CNTnotzsJqnzsIfhJ-20" value="" style="endArrow=classic;html=1;rounded=0;exitX=1;exitY=0.5;exitDx=0;exitDy=0;entryX=0;entryY=0.5;entryDx=0;entryDy=0;strokeWidth=3;flowAnimation=1;" parent="1" source="LQ7CNTnotzsJqnzsIfhJ-11" target="LQ7CNTnotzsJqnzsIfhJ-14" edge="1">
          <mxGeometry width="50" height="50" relative="1" as="geometry">
            <mxPoint x="530" y="10" as="sourcePoint" />
            <mxPoint x="580" y="-40" as="targetPoint" />
          </mxGeometry>
        </mxCell>
        <mxCell id="LQ7CNTnotzsJqnzsIfhJ-24" value="" style="endArrow=classic;html=1;rounded=0;exitX=1;exitY=0.5;exitDx=0;exitDy=0;entryX=0.009;entryY=0.188;entryDx=0;entryDy=0;entryPerimeter=0;strokeWidth=4;flowAnimation=1;" parent="1" source="uK0IQn9bH_vHSzn9rZWx-62" target="LQ7CNTnotzsJqnzsIfhJ-3" edge="1">
          <mxGeometry width="50" height="50" relative="1" as="geometry">
            <mxPoint x="510" y="10" as="sourcePoint" />
            <mxPoint x="560" y="-40" as="targetPoint" />
          </mxGeometry>
        </mxCell>
        <mxCell id="LQ7CNTnotzsJqnzsIfhJ-26" value="" style="endArrow=classic;html=1;rounded=0;exitX=1;exitY=0.5;exitDx=0;exitDy=0;strokeWidth=4;flowAnimation=1;entryX=0;entryY=0.5;entryDx=0;entryDy=0;" parent="1" source="LQ7CNTnotzsJqnzsIfhJ-14" target="LQ7CNTnotzsJqnzsIfhJ-25" edge="1">
          <mxGeometry width="50" height="50" relative="1" as="geometry">
            <mxPoint x="890" y="80" as="sourcePoint" />
            <mxPoint x="1090" y="224" as="targetPoint" />
          </mxGeometry>
        </mxCell>
        <mxCell id="LQ7CNTnotzsJqnzsIfhJ-27" value="&lt;span style=&quot;font-size: 20px;&quot;&gt;&lt;b&gt;Report Generating&lt;/b&gt;&lt;/span&gt;" style="rounded=1;whiteSpace=wrap;html=1;fillColor=#dae8fc;dashed=1;sketch=1;curveFitting=1;jiggle=2;strokeColor=#6c8ebf;" parent="1" vertex="1">
          <mxGeometry x="645" y="330" width="290" height="60" as="geometry" />
        </mxCell>
        <mxCell id="MuWPFDI2cY0Be8cJr22g-1" value="" style="shape=image;verticalLabelPosition=bottom;labelBackgroundColor=default;verticalAlign=top;aspect=fixed;imageAspect=0;image=https://upload.wikimedia.org/wikipedia/commons/7/79/Docker_%28container_engine%29_logo.png;" parent="1" vertex="1">
          <mxGeometry x="119.99999999999955" y="-550" width="682" height="163" as="geometry" />
        </mxCell>
        <mxCell id="MuWPFDI2cY0Be8cJr22g-2" value="" style="rounded=1;whiteSpace=wrap;html=1;fillColor=#ffe6cc;sketch=1;curveFitting=1;jiggle=2;strokeColor=#d79b00;" parent="1" vertex="1">
          <mxGeometry x="210" y="430" width="1230" height="80" as="geometry" />
        </mxCell>
        <mxCell id="MuWPFDI2cY0Be8cJr22g-3" value="" style="shape=image;verticalLabelPosition=bottom;labelBackgroundColor=default;verticalAlign=top;aspect=fixed;imageAspect=0;image=https://upload.wikimedia.org/wikipedia/commons/thumb/d/de/AirflowLogo.png/1200px-AirflowLogo.png;" parent="1" vertex="1">
          <mxGeometry x="747.4175862068965" y="440" width="155.17241379310346" height="60" as="geometry" />
        </mxCell>
        <mxCell id="MuWPFDI2cY0Be8cJr22g-5" value="&lt;font size=&quot;1&quot; style=&quot;&quot;&gt;&lt;b style=&quot;font-size: 52px;&quot;&gt;System Architecture&lt;/b&gt;&lt;/font&gt;" style="rounded=1;whiteSpace=wrap;html=1;fillColor=#fff2cc;strokeColor=#d6b656;gradientColor=none;fillStyle=dots;" parent="1" vertex="1">
          <mxGeometry x="-720" y="-710" width="2290" height="120" as="geometry" />
        </mxCell>
      </root>
    </mxGraphModel>
  </diagram>
</mxfile>
